<svg width="649" height="447" viewBox="0 0 649 447" fill="none" xmlns="http://www.w3.org/2000/svg">
    <g clip-path="url(#clip0_1163_335)">
    <path d="M103.219 428.211C123.967 411.263 126.65 382.758 123.712 357.561C123.217 353.354 123.322 348.878 120.984 345.344C118.645 341.811 113.698 339.67 110.01 341.766C106.952 343.503 105.872 347.261 104.343 350.42C102.304 354.627 99.051 358.235 95.0932 360.69C92.4847 362.307 89.1866 363.43 86.3682 362.202C82.5153 360.495 81.6608 355.51 81.346 351.318C80.7613 343.503 80.1616 335.688 79.577 327.858C79.2622 323.666 78.9173 319.384 77.2683 315.506C75.6192 311.629 72.396 308.185 68.2583 307.392C64.1207 306.614 59.3084 309.323 58.7837 313.5C58.5738 315.237 59.0685 316.989 59.0985 318.725C59.1285 320.477 58.4539 322.468 56.8198 323.097C55.1557 323.726 53.3567 322.678 51.9925 321.555C47.2552 317.677 43.8221 312.467 40.5989 307.272C37.3757 302.077 34.2125 296.747 29.8499 292.466C25.4874 288.184 19.6707 284.965 13.5541 285.13C7.43754 285.294 1.24603 289.531 0.181625 295.55C-0.882777 301.583 3.11997 307.302 7.31761 311.764C13.5541 318.396 20.7501 324.13 28.6056 328.711C30.0298 329.535 31.559 330.433 32.2036 331.945C33.358 334.67 30.8993 337.664 28.1709 338.817C25.0826 340.119 21.6196 340.074 18.3364 340.733C15.0533 341.392 11.5752 343.129 10.5708 346.318C9.17657 350.749 13.1793 354.941 17.0022 357.591C24.6479 362.891 33.208 366.873 42.203 369.314C45.4262 370.182 48.7993 370.901 51.4978 372.862C54.1962 374.823 56.0252 378.461 54.7509 381.545C53.4617 384.629 49.6238 385.902 46.3107 385.572C42.9826 385.243 39.9093 383.731 36.6861 382.833C30.6595 381.141 23.1487 382.159 19.8056 387.444C17.6168 390.917 17.7667 395.498 19.3408 399.301C20.9 403.104 23.7034 406.248 26.6417 409.137C36.896 419.198 49.6088 426.938 63.551 430.457C77.4632 433.96 90.131 434.169 103.219 428.211Z" fill="#EBEBEB"/>
    <path d="M105.031 446.91C103.277 436.984 100.084 425.351 95.2417 412.94C90.4295 400.514 83.9981 387.309 76.7871 373.745C74.9731 370.362 73.1891 367.008 71.4201 363.714C69.6511 360.421 67.8971 357.172 65.9782 354.088C62.1703 347.905 58.0327 342.245 53.94 336.99C49.8473 331.735 45.7546 326.9 41.9017 322.393C38.0339 317.902 34.361 313.785 30.838 310.162C23.8219 302.901 17.4805 297.721 12.983 294.337C10.7343 292.63 8.95028 291.373 7.72097 290.534C7.12131 290.13 6.65657 289.816 6.32675 289.591C6.01193 289.381 5.83203 289.292 5.83203 289.292C5.83203 289.292 5.98195 289.426 6.28178 289.651C6.61159 289.89 7.06134 290.22 7.64601 290.654C8.84534 291.537 10.5994 292.825 12.8331 294.547C17.2856 297.99 23.5671 303.2 30.5231 310.476C34.0162 314.099 37.6591 318.231 41.497 322.738C45.3348 327.244 49.3975 332.095 53.4602 337.35C57.538 342.605 61.6456 348.249 65.4385 354.402C67.3424 357.471 69.0815 360.705 70.8505 364.014C72.6195 367.307 74.4035 370.661 76.2174 374.045C83.4134 387.609 89.8448 400.768 94.6871 413.165C99.5443 425.546 102.783 437.119 104.581 447" fill="#E0E0E0"/>
    <path d="M65.8163 354.043C65.8613 354.043 65.9362 353.399 66.0562 352.216C66.1761 351.034 66.296 349.327 66.416 347.216C66.6558 342.994 66.8057 337.14 66.9557 330.702C67.1056 324.25 67.3454 318.426 67.6902 314.219C67.8551 312.108 68.0051 310.416 68.125 309.233C68.2449 308.051 68.2899 307.407 68.2449 307.392C68.2 307.392 68.08 308.036 67.8851 309.204C67.6902 310.371 67.4654 312.078 67.2405 314.174C66.7907 318.381 66.4609 324.235 66.311 330.687C66.1761 337.08 66.0562 342.859 65.9512 347.201C65.8913 349.222 65.8313 350.899 65.7863 352.201C65.7713 353.384 65.7713 354.028 65.8163 354.043Z" fill="#E0E0E0"/>
    <path d="M10.3008 348.458C10.3008 348.473 10.4957 348.488 10.8705 348.503C11.3202 348.503 11.8599 348.503 12.5045 348.503C13.9137 348.503 15.9676 348.488 18.4862 348.563C23.5383 348.668 30.5244 349.072 38.1851 349.851C45.8608 350.644 52.7719 351.662 57.7491 352.561C60.2377 352.98 62.2466 353.384 63.6408 353.654C64.2704 353.773 64.8101 353.878 65.2449 353.953C65.6197 354.013 65.8146 354.043 65.8146 354.013C65.8146 353.998 65.6347 353.923 65.2749 353.818C64.8401 353.698 64.3304 353.564 63.7008 353.399C62.3215 353.055 60.3276 352.591 57.839 352.097C52.8768 351.093 45.9507 350.001 38.2451 349.207C30.5544 348.429 23.5533 348.099 18.4862 348.099C15.9526 348.084 13.8988 348.159 12.4896 348.234C11.8449 348.279 11.3052 348.309 10.8555 348.354C10.4957 348.414 10.3008 348.444 10.3008 348.458Z" fill="#E0E0E0"/>
    <path d="M94.5534 411.982C94.5684 411.982 94.6734 411.757 94.8533 411.293C95.0482 410.769 95.303 410.095 95.6178 409.257C96.2775 407.49 97.162 404.915 98.2264 401.712C100.34 395.319 103.009 386.396 105.812 376.5C108.616 366.619 111.209 357.681 113.218 351.258C114.222 348.114 115.032 345.524 115.632 343.653C115.901 342.814 116.111 342.126 116.276 341.587C116.411 341.107 116.486 340.853 116.456 340.853C116.441 340.853 116.336 341.078 116.156 341.542C115.961 342.066 115.707 342.739 115.392 343.578C114.732 345.344 113.848 347.919 112.783 351.123C110.654 357.516 108.001 366.439 105.197 376.335C102.394 386.216 99.8005 395.154 97.7916 401.577C96.7872 404.721 95.9776 407.311 95.378 409.182C95.1081 410.021 94.8982 410.709 94.7333 411.248C94.5984 411.727 94.5235 411.982 94.5534 411.982Z" fill="#E0E0E0"/>
    <path d="M19.9688 394.885C19.9688 394.9 20.2236 394.974 20.7183 395.109C21.288 395.244 22.0076 395.409 22.8921 395.618C24.856 396.067 27.5695 396.681 30.8826 397.445C37.6288 398.987 46.9236 401.247 57.1778 403.748C67.447 406.263 76.7568 408.449 83.533 409.886C86.9211 410.605 89.6646 411.158 91.5685 411.518C92.468 411.682 93.2026 411.802 93.7573 411.907C94.267 411.997 94.5218 412.027 94.5368 411.997C94.5368 411.982 94.282 411.907 93.7872 411.772C93.2325 411.638 92.513 411.473 91.6135 411.263C89.6496 410.814 86.9361 410.2 83.6229 409.437C76.8767 407.895 67.582 405.634 57.3277 403.119C47.0735 400.604 37.7488 398.418 30.9726 396.996C27.5845 396.277 24.841 395.723 22.9371 395.364C22.0376 395.199 21.303 395.079 20.7483 394.974C20.2386 394.885 19.9837 394.855 19.9688 394.885Z" fill="#E0E0E0"/>
    <path d="M300.176 0.39566L191.789 32.9607L213.769 105.92L322.156 73.3545L300.176 0.39566Z" fill="white"/>
    <path d="M322.154 73.3447C322.154 73.3447 321.989 72.8806 321.72 72.0123C321.435 71.114 321.045 69.8264 320.52 68.1646C319.471 64.7661 317.957 59.8256 316.023 53.4927C312.17 40.8119 306.623 22.6367 299.877 0.479101L300.267 0.6887C270.358 9.70146 232.7 21.0348 191.908 33.3263H191.893L192.147 32.8472C199.973 58.8524 207.409 83.5851 214.095 105.818L213.645 105.578C245.547 96.0712 272.622 88.0017 291.736 82.2976C301.301 79.468 308.872 77.2223 314.089 75.6803C316.682 74.9167 318.676 74.3328 320.056 73.9286C320.715 73.734 321.225 73.5992 321.6 73.4795C321.959 73.3896 322.154 73.3447 322.154 73.3447C322.154 73.3447 322.004 73.4046 321.66 73.5094C321.3 73.6292 320.805 73.7789 320.16 73.9735C318.796 74.3927 316.832 74.9916 314.299 75.785C309.112 77.372 301.586 79.6626 292.081 82.5671C272.937 88.361 245.817 96.5803 213.87 106.252L213.525 106.357L213.421 106.012C206.719 83.7798 199.253 59.062 191.413 33.0568L191.293 32.6825L191.668 32.5627H191.683C232.505 20.3311 270.164 9.04272 300.087 0.0748746L300.387 -0.0149536L300.477 0.284474C307.118 22.5619 312.56 40.8419 316.368 53.5825C318.242 59.9004 319.696 64.841 320.7 68.2245C321.18 69.8863 321.555 71.1589 321.81 72.0422C322.049 72.9255 322.154 73.3447 322.154 73.3447Z" fill="#E0E0E0"/>
    <path d="M300.178 0.389282C300.193 0.389282 300.133 0.509053 300.028 0.718652C299.893 0.973165 299.728 1.27259 299.518 1.64688C299.024 2.51522 298.349 3.68298 297.495 5.18012C295.681 8.29416 293.102 12.7107 289.939 18.1603C283.448 29.1493 274.498 44.3003 264.543 61.188L264.378 61.4725L264.063 61.3527C263.014 60.9484 261.875 60.5143 260.75 60.0651C241.711 52.6543 224.471 45.9322 211.938 41.0515C205.746 38.5962 200.724 36.605 197.171 35.1977C195.477 34.509 194.143 33.9701 193.168 33.5658C192.749 33.3862 192.404 33.2365 192.134 33.1317C191.909 33.0269 191.789 32.967 191.789 32.952C191.789 32.937 191.924 32.967 192.164 33.0568C192.449 33.1616 192.793 33.2814 193.228 33.4311C194.218 33.7904 195.567 34.2844 197.276 34.9282C200.844 36.2756 205.896 38.192 212.133 40.5425C224.696 45.3782 241.966 52.0105 261.035 59.3465C262.174 59.7807 263.299 60.2298 264.348 60.6341L263.869 60.7987C273.913 43.9709 282.938 28.8648 289.474 17.9058C292.742 12.5161 295.381 8.12948 297.24 5.04538C298.139 3.57818 298.859 2.42539 299.384 1.58699C299.608 1.22768 299.803 0.928251 299.953 0.703681C300.088 0.47911 300.163 0.389282 300.178 0.389282Z" fill="#E0E0E0"/>
    <path d="M615.522 291.807C615.522 291.807 608.506 284.86 594.789 302.212C581.072 319.564 575.12 329.969 575.12 329.969C575.12 329.969 571.702 333.502 569.453 330.298C567.189 327.094 564.881 318.83 559.874 319.249C554.686 319.669 551.973 324.819 551.313 333.053C550.639 341.272 548.525 359.238 548.315 360.87C548.12 362.457 546.756 364.598 544.867 362.666C542.978 360.735 533.189 344.237 525.633 349.342C518.077 354.447 519.981 377.668 520.146 380.213C520.311 382.758 519.621 383.686 518.362 384.06C517.088 384.435 514.329 378.581 511.346 374C508.378 369.418 504.12 364.643 499.997 367.951C495.89 371.26 491.527 387.534 501.901 417.432L507.613 430.966L522.245 433.047C553.832 435.592 568.509 427.313 570.697 422.507C572.871 417.701 567.174 414.782 561.987 413.06C556.8 411.338 550.444 410.111 550.489 408.793C550.534 407.476 551.268 406.577 553.772 406.098C556.276 405.619 579.273 401.652 582.331 393.073C585.389 384.495 566.95 379.15 564.611 377.817C562.257 376.47 563.996 374.628 565.495 374.045C567.025 373.446 583.905 366.888 591.716 364.193C599.526 361.484 603.844 357.576 602.944 352.456C602.09 347.515 593.5 347.351 589.827 345.958C586.154 344.581 588.732 340.389 588.732 340.389C588.732 340.389 597.323 332.02 610.725 314.414C624.127 296.807 615.387 291.672 615.387 291.672" fill="#EBEBEB"/>
    <path d="M603.213 307.332C603.228 307.347 603.138 307.467 602.973 307.706C602.778 307.976 602.523 308.335 602.209 308.769C601.489 309.743 600.485 311.105 599.21 312.827C596.602 316.345 592.764 321.405 587.997 327.633C578.477 340.089 565.164 357.187 550.368 375.991C535.616 394.81 522.259 411.832 512.559 424.214C507.777 430.367 503.879 435.367 501.151 438.871C499.816 440.562 498.782 441.895 498.032 442.838C497.687 443.257 497.418 443.602 497.208 443.856C497.013 444.081 496.923 444.2 496.908 444.185C496.893 444.17 496.983 444.051 497.148 443.811C497.343 443.542 497.597 443.182 497.912 442.748C498.632 441.775 499.636 440.413 500.911 438.691C503.519 435.173 507.357 430.112 512.109 423.884C521.629 411.428 534.942 394.331 549.738 375.527C564.49 356.723 577.832 339.685 587.532 327.319C592.314 321.166 596.212 316.165 598.94 312.662C600.275 310.97 601.309 309.638 602.059 308.695C602.404 308.275 602.673 307.931 602.883 307.676C603.093 307.437 603.198 307.332 603.213 307.332Z" fill="#E0E0E0"/>
    <path d="M562.632 330.942C562.737 330.927 562.962 332.424 563.187 334.864C563.412 337.305 563.606 340.673 563.741 344.386C563.846 347.964 563.921 351.198 563.996 353.908C564.056 356.348 564.101 357.846 563.996 357.861C563.891 357.875 563.651 356.378 563.442 353.938C563.247 351.498 563.082 348.129 562.947 344.416C562.827 340.838 562.707 337.604 562.617 334.894C562.557 332.469 562.527 330.957 562.632 330.942Z" fill="#E0E0E0"/>
    <path d="M565.27 358.385C565.255 358.175 572.181 357.411 580.741 356.708C589.316 355.989 596.272 355.585 596.287 355.809C596.302 356.019 589.376 356.783 580.801 357.486C572.256 358.19 565.285 358.594 565.27 358.385Z" fill="#E0E0E0"/>
    <path d="M540.399 387.264C540.429 387.16 541.943 387.429 544.387 387.908C546.83 388.372 550.218 389.016 553.966 389.615C557.714 390.214 561.117 390.663 563.591 390.992C566.064 391.307 567.594 391.516 567.579 391.636C567.564 391.741 566.019 391.726 563.531 391.546C561.042 391.366 557.594 391.007 553.831 390.393C550.068 389.794 546.68 389.061 544.267 388.462C541.853 387.833 540.369 387.354 540.399 387.264Z" fill="#E0E0E0"/>
    <path d="M532.545 362.966C532.65 362.936 533.19 364.253 534 366.409C534.809 368.565 535.858 371.559 536.983 374.898C538.107 378.222 539.082 381.246 539.756 383.462C540.431 385.677 540.791 387.04 540.686 387.085C540.581 387.114 540.041 385.797 539.232 383.641C538.422 381.485 537.373 378.491 536.248 375.152C535.124 371.829 534.149 368.805 533.475 366.589C532.8 364.373 532.44 362.996 532.545 362.966Z" fill="#E0E0E0"/>
    <path d="M507.327 385.677C507.432 385.647 508.121 387.339 509.156 390.094C510.19 392.864 511.569 396.696 513.053 400.933C514.538 405.185 515.827 409.048 516.741 411.862C517.641 414.677 518.151 416.428 518.046 416.458C517.941 416.488 517.251 414.797 516.217 412.042C515.182 409.272 513.803 405.439 512.319 401.188C510.835 396.936 509.545 393.073 508.631 390.259C507.746 387.459 507.237 385.707 507.327 385.677Z" fill="#E0E0E0"/>
    <path d="M518.016 415.65C518.031 415.545 519.98 415.83 523.098 416.324C526.216 416.803 530.534 417.476 535.316 418.105C540.099 418.734 544.431 419.228 547.579 419.557C550.728 419.902 552.661 420.126 552.661 420.231C552.661 420.336 550.698 420.306 547.534 420.111C544.371 419.917 540.009 419.513 535.211 418.884C530.414 418.255 526.111 417.491 523.008 416.863C519.89 416.234 517.986 415.755 518.016 415.65Z" fill="#E0E0E0"/>
    <path d="M549.376 144.603L545.828 260.708L630.788 263.297L634.336 147.192L549.376 144.603Z" fill="#F5F5F5"/>
    <path d="M533.724 160.026L530.176 276.131L615.135 278.72L618.683 162.615L533.724 160.026Z" fill="white"/>
    <path d="M615.151 278.707C615.151 278.707 615.136 278.512 615.151 278.138C615.151 277.749 615.166 277.21 615.181 276.491C615.211 275.024 615.271 272.898 615.331 270.143C615.481 264.589 615.691 256.519 615.96 246.294C616.545 225.858 617.37 196.873 618.344 162.589L618.689 162.948C593.098 162.185 564.21 161.316 533.732 160.388H533.717L534.121 160.014C532.772 203.386 531.513 243.524 530.494 276.117L530.179 275.787C555.874 276.641 577.072 277.344 591.869 277.839C599.26 278.093 605.062 278.303 609.034 278.437C610.998 278.512 612.512 278.572 613.562 278.617C614.596 278.662 615.151 278.707 615.151 278.707C615.151 278.707 614.656 278.722 613.652 278.692C612.617 278.662 611.133 278.632 609.184 278.587C605.227 278.482 599.455 278.333 592.094 278.153C577.252 277.734 555.979 277.15 530.194 276.431L529.879 276.416L529.894 276.102C530.868 243.509 532.068 203.371 533.372 159.999L533.387 159.61L533.777 159.625H533.792C564.27 160.568 593.158 161.466 618.734 162.245L619.094 162.26L619.079 162.619C617.954 197.008 617.01 226.068 616.335 246.548C615.99 256.729 615.706 264.784 615.511 270.308C615.406 273.033 615.331 275.129 615.271 276.581C615.241 277.27 615.211 277.794 615.196 278.183C615.166 278.527 615.151 278.707 615.151 278.707Z" fill="#E0E0E0"/>
    <path d="M585.513 186.888C585.513 187.097 576.264 186.992 564.855 186.648C553.446 186.304 544.212 185.84 544.227 185.63C544.227 185.42 553.476 185.525 564.885 185.869C576.294 186.214 585.528 186.663 585.513 186.888Z" fill="#E0E0E0"/>
    <path d="M607.535 197.652C607.535 197.862 593.278 197.607 575.723 197.068C558.153 196.529 543.926 195.93 543.926 195.706C543.926 195.496 558.183 195.751 575.753 196.29C593.308 196.829 607.55 197.442 607.535 197.652Z" fill="#E0E0E0"/>
    <path d="M607.219 208.177C607.219 208.386 592.962 208.132 575.407 207.593C557.836 207.054 543.609 206.455 543.609 206.23C543.609 206.021 557.866 206.275 575.436 206.814C592.992 207.353 607.219 207.967 607.219 208.177Z" fill="#E0E0E0"/>
    <path d="M606.89 218.702C606.89 218.911 592.633 218.657 575.078 218.118C557.508 217.579 543.281 216.98 543.281 216.755C543.281 216.546 557.538 216.8 575.108 217.339C592.663 217.878 606.905 218.492 606.89 218.702Z" fill="#E0E0E0"/>
    <path d="M606.574 229.227C606.574 229.436 592.317 229.182 574.762 228.643C557.192 228.104 542.965 227.505 542.965 227.28C542.965 227.071 557.222 227.325 574.792 227.864C592.347 228.403 606.574 229.017 606.574 229.227Z" fill="#E0E0E0"/>
    <path d="M606.246 239.751C606.246 239.961 591.989 239.706 574.434 239.167C556.864 238.629 542.637 238.03 542.637 237.805C542.637 237.595 556.894 237.85 574.464 238.389C592.019 238.928 606.261 239.542 606.246 239.751Z" fill="#E0E0E0"/>
    <path d="M605.93 250.276C605.93 250.486 591.673 250.231 574.117 249.692C556.547 249.153 542.32 248.555 542.32 248.33C542.32 248.12 556.577 248.375 574.147 248.914C591.703 249.453 605.93 250.067 605.93 250.276Z" fill="#E0E0E0"/>
    <path d="M576.188 259.903C576.188 260.112 568.527 260.053 559.083 259.768C549.638 259.484 541.992 259.079 541.992 258.855C541.992 258.645 549.653 258.705 559.098 258.99C568.542 259.274 576.188 259.693 576.188 259.903Z" fill="#E0E0E0"/>
    <path d="M366.292 82.822L339.707 149.506L423.223 182.711L449.808 116.027L366.292 82.822Z" fill="white"/>
    <path d="M449.805 116.043C449.805 116.043 449.67 115.998 449.401 115.893C449.131 115.789 448.741 115.639 448.231 115.429C447.197 115.025 445.683 114.426 443.704 113.648C439.746 112.076 433.944 109.785 426.598 106.881C411.922 101.057 391.053 92.7925 366.242 82.9563L366.422 82.8815C358.522 102.733 349.452 125.475 339.857 149.564L339.767 149.369C370.68 161.676 399.419 173.099 423.27 182.606L423.105 182.681C431.141 162.604 437.797 145.956 442.459 134.323C444.798 128.499 446.627 123.948 447.871 120.834C448.501 119.277 448.981 118.094 449.311 117.286C449.625 116.462 449.805 116.043 449.805 116.043C449.805 116.043 449.655 116.447 449.341 117.256C449.026 118.064 448.561 119.247 447.946 120.804C446.717 123.918 444.903 128.484 442.609 134.293C437.977 145.956 431.351 162.649 423.345 182.77L423.3 182.89L423.18 182.845C399.314 173.368 370.575 161.945 339.662 149.669L339.527 149.609L339.587 149.474C349.197 125.4 358.267 102.659 366.182 82.8066L366.227 82.6868L366.347 82.7317C391.173 92.6278 412.057 100.967 426.733 106.821C434.049 109.755 439.836 112.061 443.779 113.633C445.743 114.426 447.257 115.025 448.276 115.444C448.786 115.654 449.161 115.803 449.431 115.908C449.685 115.983 449.805 116.043 449.805 116.043Z" fill="#E0E0E0"/>
    <path d="M367.446 88.2228L344.211 146.505L421.863 177.379L445.098 119.097L367.446 88.2228Z" fill="#EBEBEB"/>
    <path d="M344.52 146.704L386.076 121.253L393.842 150.597L410.078 143.021L422.161 177.575L344.52 146.704Z" fill="#E0E0E0"/>
    <path d="M411.787 126.328C410.438 129.697 406.615 131.344 403.242 129.996C399.869 128.649 398.219 124.831 399.569 121.463C400.918 118.094 404.741 116.447 408.114 117.795C411.487 119.142 413.121 122.96 411.787 126.328Z" fill="#E0E0E0"/>
    <path d="M148.507 189.867C148.522 189.807 149.092 190.256 150.291 190.166C150.876 190.091 151.61 189.837 152.21 189.208C152.78 188.594 153.199 187.606 153.799 186.633C156.123 182.591 159.436 176.812 163.529 169.685C164.563 167.904 165.643 166.032 166.767 164.071C167.337 163.098 167.906 162.095 168.491 161.092C168.776 160.583 169.121 160.074 169.285 159.58C169.45 159.071 169.465 158.517 169.33 157.978C169.196 157.454 168.896 156.975 168.476 156.615C168.071 156.286 167.456 156.002 166.932 155.702C165.837 155.088 164.728 154.475 163.604 153.846C161.34 152.588 159.031 151.286 156.648 149.953C147.068 144.623 136.604 138.755 125.63 132.601C124.416 131.898 122.752 132.362 121.987 133.515C121.208 134.847 120.428 136.165 119.663 137.482C118.119 140.132 116.605 142.737 115.106 145.297C112.108 150.417 109.229 155.358 106.471 160.074C106.126 160.658 105.781 161.242 105.451 161.825C105.107 162.364 104.957 162.933 104.972 163.532C105.002 164.116 105.211 164.7 105.586 165.134C105.931 165.598 106.501 165.838 107.07 166.182C109.319 167.455 111.508 168.682 113.622 169.88C117.834 172.275 121.777 174.491 125.375 176.527C132.511 180.6 138.298 183.893 142.361 186.214C144.324 187.352 145.869 188.25 146.963 188.879C147.458 189.178 147.848 189.403 148.147 189.582C148.387 189.762 148.522 189.852 148.507 189.867C148.507 189.882 148.357 189.807 148.072 189.672C147.758 189.508 147.353 189.298 146.843 189.028C145.734 188.43 144.16 187.576 142.166 186.483C138.073 184.223 132.241 180.989 125.06 177.021C121.447 175.015 117.505 172.814 113.262 170.449C111.148 169.266 108.944 168.039 106.696 166.781C106.171 166.467 105.481 166.182 105.017 165.583C104.537 165.029 104.267 164.296 104.237 163.562C104.207 162.829 104.432 162.065 104.807 161.466C105.152 160.882 105.481 160.298 105.826 159.715C108.57 154.999 111.433 150.043 114.416 144.908C115.9 142.348 117.43 139.728 118.959 137.078C119.738 135.745 120.518 134.413 121.312 133.051C122.272 131.583 124.401 130.984 125.975 131.898C136.949 138.066 147.398 143.95 156.917 149.309C159.286 150.657 161.61 151.959 163.859 153.232C164.983 153.861 166.092 154.49 167.187 155.103C167.726 155.433 168.266 155.657 168.836 156.106C169.36 156.556 169.735 157.154 169.9 157.798C170.065 158.442 170.035 159.131 169.84 159.759C169.615 160.403 169.255 160.867 168.986 161.376C168.401 162.379 167.816 163.383 167.247 164.341C166.107 166.287 165.013 168.143 163.963 169.925C159.781 176.991 156.408 182.726 154.024 186.753C153.394 187.726 152.99 188.669 152.345 189.343C151.685 189.987 150.891 190.241 150.276 190.286C149.647 190.331 149.182 190.196 148.897 190.061C148.627 189.972 148.507 189.867 148.507 189.867Z" fill="#E0E0E0"/>
    <path d="M140.591 159.176L144.369 165.883L136.573 166.017L128.777 166.167L132.795 159.325L136.813 152.483L140.591 159.176Z" fill="#E0E0E0"/>
    <path d="M649 444.62C649 444.844 505.605 445.039 328.765 445.039C151.864 445.039 8.5 444.859 8.5 444.62C8.5 444.395 151.864 444.2 328.765 444.2C505.605 444.215 649 444.395 649 444.62Z" fill="#263238"/>
    <path d="M167.036 349.507L121.762 304.098L144.519 262.358C167.276 233.269 215.459 235.14 215.459 235.14C215.459 235.14 248.246 231.981 286.504 239.422C324.778 246.863 321.689 272.149 321.689 272.149L326.816 365.825L332.318 442.104L191.173 444.949L167.036 349.507Z" fill="#005377"/>
    <path d="M243.074 440.562L116.65 442.104C86.2768 442.479 66.0082 410.934 79.0059 383.506L133.065 283.393L182.298 316.629L148.717 386.231L251.064 388.058L243.074 440.562Z" fill="#005377"/>
    <path d="M317.176 256.939L418.624 413.359L359.437 417.222C359.437 417.222 324.087 361.603 324.896 362.756C326.351 364.837 317.176 256.939 317.176 256.939Z" fill="#005377"/>
    <path d="M179.749 325.627C179.719 325.627 179.779 325.343 179.884 324.819C180.034 324.22 180.199 323.471 180.424 322.558C180.888 320.597 181.578 317.752 182.283 314.204C182.987 310.671 183.752 306.434 184.262 301.688C184.741 296.957 185.041 291.687 184.322 286.267C183.512 280.863 181.473 275.952 179.089 271.865C176.691 267.763 174.007 264.394 171.564 261.744C169.12 259.094 166.961 257.118 165.417 255.816C163.888 254.498 163.004 253.81 163.049 253.75C163.064 253.735 163.303 253.884 163.738 254.184C164.173 254.498 164.833 254.932 165.612 255.576C167.216 256.819 169.45 258.75 171.968 261.37C174.487 263.99 177.261 267.359 179.719 271.506C182.178 275.638 184.277 280.623 185.101 286.163C185.836 291.702 185.506 297.017 184.996 301.778C184.441 306.539 183.617 310.791 182.837 314.324C182.058 317.857 181.293 320.687 180.724 322.633C180.439 323.606 180.214 324.355 180.049 324.864C179.884 325.373 179.779 325.627 179.749 325.627Z" fill="#263238"/>
    <path d="M175.685 331.017C175.73 331.032 175.415 331.84 174.815 333.278C174.216 334.715 173.301 336.781 172.162 339.311C169.868 344.386 166.615 351.363 162.867 358.998C159.119 366.634 155.581 373.476 152.958 378.386C151.653 380.842 150.574 382.818 149.794 384.18C149.03 385.543 148.58 386.276 148.535 386.246C148.49 386.216 148.85 385.438 149.524 384.031C150.274 382.518 151.263 380.527 152.463 378.117C154.996 373.012 158.399 366.185 162.162 358.624C165.85 351.034 169.178 344.177 171.667 339.042C172.836 336.631 173.811 334.625 174.545 333.113C175.235 331.765 175.64 331.002 175.685 331.017Z" fill="#263238"/>
    <path d="M243.075 440.562C243.06 440.562 243.06 440.473 243.075 440.293C243.09 440.083 243.105 439.829 243.135 439.529C243.21 438.811 243.315 437.808 243.435 436.55C243.735 433.885 244.139 430.097 244.679 425.322C245.804 415.65 247.378 402.011 249.237 385.947L249.596 386.351C238.218 386.366 225.565 386.366 212.252 386.381C186.752 386.336 163.68 386.291 146.919 386.261C138.599 386.216 131.853 386.171 127.115 386.141C124.822 386.112 123.023 386.082 121.733 386.067C121.149 386.052 120.684 386.037 120.339 386.022C120.024 386.007 119.859 385.992 119.859 385.977C119.859 385.962 120.024 385.947 120.339 385.932C120.699 385.917 121.164 385.902 121.733 385.887C123.023 385.872 124.822 385.842 127.115 385.812C131.838 385.782 138.599 385.737 146.919 385.692C163.68 385.662 186.752 385.617 212.252 385.573C225.565 385.588 238.218 385.602 249.596 385.602H250.001L249.956 386.007C247.977 402.056 246.313 415.68 245.129 425.351C244.514 430.112 244.035 433.9 243.69 436.565C243.51 437.823 243.375 438.811 243.285 439.529C243.24 439.844 243.195 440.083 243.165 440.293C243.105 440.473 243.075 440.562 243.075 440.562Z" fill="#263238"/>
    <path d="M149.6 387.309C149.495 387.369 148.625 386.097 147.081 384.15C145.537 382.219 143.228 379.659 140.335 377.219C137.442 374.778 134.533 372.937 132.359 371.739C130.186 370.526 128.776 369.898 128.821 369.778C128.851 369.688 130.35 370.152 132.614 371.245C134.878 372.338 137.891 374.134 140.83 376.62C143.768 379.105 146.062 381.77 147.516 383.806C148.97 385.872 149.675 387.264 149.6 387.309Z" fill="#263238"/>
    <path d="M328.929 397.22C328.899 397.22 328.839 396.771 328.734 395.933C328.629 395.019 328.494 393.777 328.315 392.205C327.97 388.971 327.505 384.285 327.01 378.476C325.991 366.873 324.806 350.839 323.742 333.098C322.693 315.357 321.958 299.293 321.538 287.66C321.328 281.836 321.179 277.135 321.119 273.886C321.089 272.314 321.074 271.057 321.059 270.143C321.059 269.29 321.059 268.841 321.089 268.841C321.119 268.841 321.164 269.29 321.208 270.143C321.253 271.072 321.328 272.314 321.418 273.886C321.583 277.21 321.808 281.896 322.093 287.66C322.663 299.293 323.472 315.342 324.522 333.083C325.571 350.809 326.665 366.843 327.55 378.461C328 384.21 328.359 388.881 328.614 392.205C328.734 393.777 328.824 395.019 328.884 395.948C328.929 396.771 328.944 397.22 328.929 397.22Z" fill="#263238"/>
    <path d="M216.072 312.108C216.027 312.108 216.087 311.389 216.237 310.057C216.417 308.635 216.642 306.733 216.927 304.398C217.587 299.457 218.486 292.69 219.535 284.845L220.12 285.204C217.092 287.315 213.824 289.606 210.421 291.987C206.958 294.397 203.629 296.703 200.556 298.843L199.852 299.337L199.986 298.484C201.171 290.714 202.205 284.007 202.955 279.111C203.33 276.806 203.644 274.934 203.884 273.527C204.109 272.224 204.259 271.521 204.304 271.536C204.349 271.536 204.289 272.254 204.139 273.572C203.959 274.994 203.719 276.88 203.435 279.186C202.76 284.097 201.815 290.819 200.736 298.604L200.151 298.245C203.21 296.104 206.538 293.783 210.001 291.358C213.404 288.992 216.687 286.702 219.715 284.606L220.42 284.112L220.3 284.965C219.146 292.78 218.156 299.547 217.422 304.473C217.047 306.793 216.747 308.68 216.522 310.102C216.267 311.404 216.117 312.123 216.072 312.108Z" fill="#E0E0E0"/>
    <path d="M272.502 318.186C272.472 318.216 271.947 317.707 271.033 316.749C270.043 315.701 268.724 314.309 267.105 312.602C263.717 308.934 259.085 303.919 253.718 298.11L254.362 297.885C254.062 301.553 253.733 305.536 253.388 309.668C253.028 313.86 252.683 317.902 252.353 321.63L252.278 322.498L251.709 321.854C246.492 315.971 241.979 310.895 238.681 307.182C237.152 305.416 235.908 303.979 234.963 302.901C234.109 301.898 233.659 301.329 233.689 301.314C233.719 301.284 234.229 301.793 235.143 302.736C236.118 303.784 237.422 305.161 239.011 306.868C242.354 310.521 246.941 315.536 252.248 321.345L251.604 321.555C251.919 317.827 252.248 313.785 252.593 309.593C252.953 305.461 253.298 301.478 253.613 297.81L253.688 296.957L254.257 297.601C259.549 303.485 264.107 308.575 267.45 312.288C269.009 314.054 270.268 315.492 271.213 316.584C272.067 317.588 272.532 318.156 272.502 318.186Z" fill="#E0E0E0"/>
    <path d="M300.898 316.18C300.928 316.21 300.568 316.824 299.878 317.962C299.114 319.175 298.094 320.806 296.85 322.798C294.151 326.99 290.448 332.739 286.161 339.386L285.786 338.817C289.414 338.188 293.357 337.514 297.449 336.811C301.602 336.107 305.62 335.433 309.308 334.805L310.162 334.655L309.683 335.374C305.29 341.901 301.497 347.53 298.739 351.647C297.404 353.564 296.325 355.136 295.516 356.304C294.751 357.381 294.331 357.95 294.286 357.935C294.256 357.905 294.616 357.292 295.306 356.169C296.07 354.956 297.09 353.354 298.349 351.393C301.062 347.246 304.765 341.557 309.068 334.969L309.443 335.538C305.755 336.167 301.752 336.856 297.599 337.574C293.507 338.263 289.564 338.937 285.921 339.551L285.066 339.7L285.546 338.982C289.924 332.394 293.717 326.705 296.475 322.558C297.794 320.612 298.874 319.04 299.698 317.842C300.433 316.734 300.868 316.15 300.898 316.18Z" fill="#E0E0E0"/>
    <path d="M263.132 345.195C263.162 345.225 262.802 345.839 262.112 346.976C261.348 348.189 260.328 349.821 259.084 351.812C256.386 356.004 252.683 361.753 248.395 368.4L248.02 367.831C251.648 367.203 255.591 366.529 259.684 365.825C263.836 365.122 267.854 364.448 271.542 363.819L272.397 363.669L271.917 364.388C267.524 370.916 263.732 376.545 260.973 380.662C259.639 382.578 258.559 384.15 257.75 385.318C256.985 386.396 256.566 386.965 256.521 386.95C256.491 386.92 256.85 386.306 257.54 385.183C258.305 383.971 259.324 382.369 260.583 380.407C263.297 376.26 267 370.571 271.302 363.984L271.677 364.553C267.989 365.182 263.986 365.87 259.834 366.589C255.741 367.278 251.798 367.951 248.155 368.565L247.301 368.715L247.78 367.996C252.158 361.409 255.951 355.72 258.709 351.573C260.029 349.626 261.108 348.054 261.933 346.857C262.667 345.749 263.102 345.165 263.132 345.195Z" fill="#E0E0E0"/>
    <path d="M344.718 315.761C344.748 315.791 344.388 316.405 343.698 317.543C342.934 318.755 341.914 320.387 340.67 322.378C337.972 326.57 334.269 332.319 329.981 338.967L329.606 338.398C333.234 337.769 337.177 337.095 341.27 336.392C345.422 335.688 349.44 335.014 353.128 334.385L353.983 334.236L353.503 334.954C349.11 341.482 345.317 347.111 342.559 351.228C341.225 353.145 340.145 354.717 339.336 355.884C338.571 356.962 338.151 357.531 338.107 357.516C338.077 357.486 338.436 356.872 339.126 355.75C339.891 354.537 340.91 352.935 342.169 350.974C344.883 346.827 348.586 341.138 352.888 334.55L353.263 335.119C349.575 335.748 345.572 336.437 341.42 337.155C337.327 337.844 333.384 338.518 329.741 339.131L328.887 339.281L329.366 338.562C333.744 331.975 337.537 326.286 340.295 322.139C341.615 320.193 342.694 318.621 343.518 317.423C344.253 316.33 344.688 315.746 344.718 315.761Z" fill="#E0E0E0"/>
    <path d="M153.647 291.807C153.677 291.837 153.318 292.451 152.628 293.588C151.864 294.801 150.844 296.433 149.6 298.424C146.901 302.616 143.198 308.365 138.911 315.012L138.536 314.444C142.164 313.815 146.107 313.141 150.199 312.437C154.352 311.734 158.37 311.06 162.058 310.431L162.912 310.282L162.433 311C158.04 317.528 154.247 323.157 151.489 327.274C150.154 329.19 149.075 330.762 148.266 331.93C147.501 333.008 147.081 333.577 147.036 333.562C147.006 333.532 147.366 332.918 148.056 331.795C148.82 330.583 149.84 328.981 151.099 327.02C153.812 322.872 157.515 317.183 161.818 310.596L162.193 311.165C158.505 311.794 154.502 312.482 150.349 313.201C146.257 313.89 142.314 314.563 138.671 315.177L137.816 315.327L138.296 314.608C142.674 308.021 146.467 302.332 149.225 298.185C150.544 296.238 151.624 294.666 152.448 293.469C153.183 292.361 153.618 291.777 153.647 291.807Z" fill="#E0E0E0"/>
    <path d="M94.3882 403.748C94.4182 403.718 94.9129 404.257 95.7674 405.275C96.6819 406.383 97.9112 407.85 99.4254 409.661C102.574 413.524 106.891 418.824 111.883 424.962L111.224 425.142C111.763 421.504 112.333 417.551 112.933 413.434C113.562 409.272 114.162 405.26 114.702 401.562L114.837 400.709L115.361 401.382C120.204 407.58 124.386 412.925 127.445 416.833C128.869 418.689 130.008 420.201 130.878 421.339C131.672 422.402 132.077 422.986 132.047 423.016C132.017 423.046 131.537 422.507 130.683 421.504C129.768 420.396 128.569 418.929 127.07 417.132C123.967 413.27 119.709 407.985 114.777 401.861L115.436 401.682C114.897 405.38 114.312 409.392 113.697 413.554C113.083 417.656 112.498 421.609 111.943 425.247L111.823 426.1L111.299 425.426C106.396 419.228 102.154 413.868 99.0506 409.946C97.6114 408.089 96.4421 406.562 95.5576 405.425C94.778 404.362 94.3582 403.778 94.3882 403.748Z" fill="#E0E0E0"/>
    <path d="M229.746 331.271C229.746 331.316 229.026 331.406 227.707 331.541C226.268 331.661 224.364 331.825 222.01 332.035C217.033 332.409 210.212 332.918 202.311 333.502L202.536 332.858C205.22 335.374 208.143 338.113 211.171 340.943C214.244 343.832 217.198 346.617 219.911 349.177L220.541 349.776L219.686 349.821C211.831 350.255 205.04 350.629 200.092 350.899C197.754 351.004 195.85 351.078 194.426 351.138C193.106 351.183 192.387 351.183 192.387 351.138C192.387 351.093 193.091 351.004 194.411 350.884C195.835 350.764 197.739 350.614 200.062 350.42C205.01 350.075 211.786 349.611 219.641 349.072L219.417 349.716C216.688 347.156 213.72 344.386 210.646 341.497C207.633 338.652 204.71 335.912 202.041 333.382L201.412 332.798L202.266 332.754C210.167 332.274 217.003 331.87 221.98 331.571C224.334 331.451 226.253 331.361 227.692 331.301C229.026 331.226 229.746 331.226 229.746 331.271Z" fill="#E0E0E0"/>
    <path d="M196.538 406.727C196.568 406.697 197.063 407.221 197.948 408.224C198.892 409.317 200.151 410.754 201.695 412.536C204.919 416.339 209.341 421.564 214.453 427.597L213.794 427.792C214.258 424.139 214.753 420.171 215.278 416.054C215.817 411.877 216.342 407.85 216.822 404.152L216.927 403.299L217.467 403.972C222.429 410.066 226.716 415.336 229.85 419.183C231.304 421.01 232.488 422.507 233.373 423.615C234.182 424.663 234.602 425.232 234.572 425.262C234.542 425.292 234.047 424.768 233.178 423.779C232.248 422.702 231.004 421.249 229.49 419.483C226.312 415.68 221.949 410.485 216.897 404.451L217.556 404.257C217.092 407.97 216.582 411.982 216.057 416.159C215.518 420.276 215.008 424.229 214.543 427.882L214.438 428.735L213.899 428.076C208.876 421.968 204.529 416.698 201.351 412.835C199.881 410.994 198.682 409.512 197.783 408.389C196.928 407.326 196.493 406.757 196.538 406.727Z" fill="#E0E0E0"/>
    <path d="M137.16 351.378C137.16 351.423 136.44 351.513 135.121 351.647C133.682 351.767 131.778 351.932 129.424 352.141C124.447 352.516 117.626 353.025 109.725 353.609L109.95 352.965C112.634 355.48 115.557 358.22 118.585 361.049C121.658 363.939 124.612 366.724 127.325 369.284L127.955 369.883L127.1 369.927C119.245 370.362 112.454 370.736 107.506 371.005C105.168 371.11 103.264 371.185 101.84 371.245C100.52 371.29 99.8008 371.29 99.8008 371.245C99.8008 371.2 100.505 371.11 101.825 370.99C103.249 370.871 105.153 370.721 107.476 370.526C112.424 370.182 119.2 369.718 127.055 369.179L126.831 369.823C124.102 367.263 121.134 364.493 118.061 361.618C115.047 358.774 112.124 356.034 109.455 353.504L108.826 352.92L109.68 352.875C117.581 352.396 124.417 351.992 129.394 351.692C131.748 351.573 133.667 351.483 135.106 351.423C136.44 351.348 137.16 351.333 137.16 351.378Z" fill="#E0E0E0"/>
    <path d="M188.175 405.02C188.175 405.065 187.456 405.155 186.137 405.29C184.697 405.41 182.793 405.574 180.44 405.784C175.463 406.158 168.641 406.667 160.741 407.251L160.966 406.607C163.649 409.122 166.573 411.862 169.601 414.692C172.674 417.581 175.627 420.366 178.341 422.926L178.971 423.525L178.116 423.57C170.26 424.004 163.469 424.378 158.522 424.648C156.183 424.753 154.279 424.827 152.855 424.887C151.536 424.932 150.816 424.932 150.816 424.887C150.816 424.842 151.521 424.753 152.84 424.633C154.264 424.513 156.168 424.363 158.492 424.169C163.439 423.824 170.215 423.36 178.071 422.821L177.846 423.465C175.118 420.905 172.149 418.135 169.076 415.246C166.063 412.401 163.139 409.661 160.471 407.131L159.841 406.547L160.696 406.502C168.596 406.023 175.433 405.619 180.41 405.32C182.763 405.2 184.682 405.11 186.122 405.05C187.441 404.99 188.16 404.975 188.175 405.02Z" fill="#E0E0E0"/>
    <path d="M303.324 268.556C303.324 268.601 302.604 268.691 301.285 268.826C299.846 268.946 297.942 269.11 295.588 269.32C290.611 269.694 283.79 270.203 275.889 270.787L276.114 270.143C278.798 272.659 281.721 275.398 284.749 278.228C287.823 281.117 290.776 283.902 293.489 286.462L294.119 287.061L293.264 287.106C285.409 287.54 278.618 287.914 273.671 288.184C271.332 288.289 269.428 288.363 268.004 288.423C266.684 288.468 265.965 288.468 265.965 288.423C265.965 288.378 266.669 288.289 267.989 288.169C269.413 288.049 271.317 287.899 273.641 287.705C278.588 287.36 285.364 286.896 293.22 286.357L292.995 287.001C290.266 284.441 287.298 281.671 284.225 278.797C281.211 275.952 278.288 273.212 275.619 270.682L274.99 270.098L275.844 270.053C283.745 269.574 290.581 269.17 295.558 268.871C297.912 268.751 299.831 268.661 301.27 268.601C302.589 268.511 303.309 268.511 303.324 268.556Z" fill="#E0E0E0"/>
    <path d="M247.301 405.02C247.301 405.02 272.532 397.759 280.867 395.633C284.12 394.81 298.047 402.146 307.672 408.239C307.672 408.239 320.925 416.084 319.845 418.51C318.661 421.174 313.774 420.62 305.993 416.967C305.993 416.967 308.706 424.857 303.369 424.678C303.369 424.678 306.023 433.196 301.016 434.08C296.008 434.963 294.839 424.094 290.417 423.495C286.009 422.911 276.879 422.312 276.879 422.312C276.879 422.312 269.279 434.873 263.402 435.757C257.51 436.64 243.883 435.053 243.883 435.053L247.301 405.02Z" fill="#FFD8C5"/>
    <path d="M290.355 406.757C290.475 406.577 293.623 408.359 297.401 410.739C301.179 413.12 304.147 415.186 304.027 415.381C303.907 415.56 300.759 413.779 296.981 411.398C293.203 409.018 290.235 406.937 290.355 406.757Z" fill="#FFC2A1"/>
    <path d="M288.873 411.608C288.963 411.413 292.711 412.94 297.238 415.036C301.765 417.117 305.363 418.974 305.274 419.168C305.184 419.363 301.436 417.836 296.908 415.74C292.381 413.659 288.783 411.802 288.873 411.608Z" fill="#FFC2A1"/>
    <path d="M291.571 423.345C291.601 423.136 294.149 423.3 297.267 423.735C300.386 424.154 302.889 424.678 302.859 424.887C302.829 425.097 300.281 424.932 297.162 424.498C294.044 424.079 291.541 423.57 291.571 423.345Z" fill="#FFC2A1"/>
    <path d="M214.5 145.192C215.085 147.124 214.425 149.369 212.866 150.657C211.322 151.959 208.984 152.214 207.185 151.316C203.766 149.579 203.332 144.878 204.006 141.105C204.681 137.332 205.955 133.32 204.381 129.832C203.167 127.167 200.543 125.475 198.504 123.379C194.936 119.726 193.048 114.396 193.917 109.366C194.787 104.335 198.564 99.8141 203.482 98.4517C208.504 97.0444 214.695 98.5865 218.428 94.9634C221.142 92.3284 221.307 88.0167 223.405 84.8877C226.659 80.007 233.54 79.2435 239.356 80.0369C245.173 80.8304 251.08 82.6869 256.777 81.2796C261.529 80.0968 265.442 76.7882 269.894 74.752C279.549 70.3355 291.902 72.7309 299.203 80.4262C306.519 88.1215 308.243 100.563 303.325 109.965C301.556 113.348 298.888 116.402 295.365 117.84" fill="#263238"/>
    <path d="M243.42 268.856C259.521 268.841 272.504 255.681 272.294 239.602L271.919 212.084C271.919 212.084 295.066 209.764 296.61 186.858C298.139 163.951 297.03 111.103 297.03 111.103C271.08 98.2571 240.197 100.428 216.315 116.807L212.777 119.232L214.501 240.41C214.726 256.19 227.619 268.871 243.42 268.856Z" fill="#FFD8C5"/>
    <path d="M290.944 152.573C286.866 151.765 286.896 146.51 290.989 145.761C291.169 145.731 291.364 145.731 291.543 145.761C295.621 146.57 295.591 151.825 291.499 152.573C291.319 152.618 291.124 152.618 290.944 152.573Z" fill="#263238"/>
    <path d="M295.441 145.267C295.066 145.641 292.908 143.785 289.744 143.605C286.581 143.366 284.197 144.923 283.868 144.504C283.703 144.309 284.108 143.62 285.142 142.917C286.161 142.213 287.885 141.584 289.864 141.704C291.828 141.839 293.462 142.692 294.377 143.53C295.336 144.354 295.636 145.102 295.441 145.267Z" fill="#263238"/>
    <path d="M258.875 146.031C260.389 147.079 260.764 149.16 259.715 150.672C258.665 152.184 256.582 152.558 255.067 151.51C253.553 150.462 253.178 148.381 254.228 146.869C255.277 145.357 257.361 144.983 258.875 146.031Z" fill="#263238"/>
    <path d="M260.961 146.18C260.586 146.555 258.427 144.698 255.264 144.519C252.101 144.279 249.717 145.836 249.387 145.417C249.222 145.222 249.627 144.534 250.661 143.83C251.681 143.126 253.405 142.497 255.384 142.617C257.348 142.752 258.982 143.605 259.896 144.444C260.841 145.267 261.141 146.016 260.961 146.18Z" fill="#263238"/>
    <path d="M272.204 172.904C272.189 172.65 274.168 172.365 277.376 172.096C278.216 172.051 278.86 171.901 278.95 171.452C279.13 170.958 278.86 170.06 278.485 169.057C277.781 166.931 277.076 164.76 276.342 162.499C273.388 153.172 271.379 145.492 271.844 145.342C272.324 145.192 275.097 152.633 278.051 161.96C278.74 164.236 279.415 166.407 280.06 168.548C280.314 169.521 280.824 170.659 280.329 172.006C280.06 172.68 279.385 173.129 278.83 173.249C278.276 173.383 277.811 173.353 277.406 173.353C274.213 173.323 272.219 173.159 272.204 172.904Z" fill="#263238"/>
    <path d="M261.755 175.839C265.803 177.71 270.63 180.046 277.016 181.183C277.016 181.183 272.999 186.873 266.522 184.103C259.776 181.213 261.755 175.839 261.755 175.839Z" fill="white"/>
    <path d="M271.962 211.74C271.962 211.74 257.391 212.129 242.504 201.619C242.504 201.619 248.68 218.507 271.692 217.684L271.962 211.74Z" fill="#FFC2A1"/>
    <path d="M297.181 116.881C297.181 116.881 283.329 123.918 264.949 115.19C252.896 109.471 238.909 106.836 235.895 109.291C232.867 111.746 232.462 124.053 220.709 127.87C220.709 127.87 221.983 151.301 212.598 150.642C203.214 149.983 208.371 113.558 208.371 113.558L231.053 101.94L255.954 96.745L279.566 99.6045L297.886 104.231L297.181 116.881Z" fill="#263238"/>
    <path d="M214.304 143.111C213.929 142.917 198.788 137.587 198.428 153.292C198.068 168.997 213.929 166.107 213.974 165.658C214.004 165.209 214.304 143.111 214.304 143.111Z" fill="#FFD8C5"/>
    <path d="M209.311 159.61C209.236 159.565 209.026 159.789 208.561 159.999C208.111 160.194 207.332 160.313 206.507 159.999C204.858 159.355 203.524 156.69 203.509 153.861C203.494 152.423 203.824 151.076 204.364 149.968C204.873 148.83 205.638 148.052 206.477 147.917C207.317 147.737 207.902 148.261 208.082 148.711C208.276 149.16 208.171 149.459 208.261 149.489C208.306 149.534 208.606 149.235 208.486 148.576C208.426 148.261 208.246 147.887 207.887 147.573C207.512 147.258 206.972 147.094 206.387 147.139C205.173 147.198 204.064 148.291 203.479 149.504C202.834 150.732 202.43 152.259 202.43 153.861C202.46 157.02 204.019 160.029 206.268 160.733C207.362 161.047 208.291 160.733 208.786 160.373C209.266 159.984 209.356 159.64 209.311 159.61Z" fill="#FFC2A1"/>
    <path d="M206.299 93.9603C206.209 93.7806 208.788 93.047 211.756 94.1549C214.724 95.2478 216.194 97.4935 216.014 97.5684C215.849 97.7331 214.23 95.8766 211.486 94.8885C208.758 93.8555 206.329 94.1998 206.299 93.9603Z" fill="#263238"/>
    <path d="M215.76 84.5583C216.03 84.5733 215.61 87.867 216.15 91.7895C216.689 95.7569 218.548 98.5116 218.338 98.6314C218.263 98.6913 217.694 98.0775 217.019 96.8947C216.359 95.7269 215.655 93.9454 215.37 91.9092C214.815 87.8071 215.61 84.5284 215.76 84.5583Z" fill="#263238"/>
    <path d="M280.36 137.722C280.27 137.542 280.944 137.003 282.218 136.479C283.493 135.955 285.382 135.521 287.496 135.536C289.609 135.566 291.483 136.045 292.743 136.584C294.002 137.123 294.676 137.677 294.587 137.871C294.392 138.291 291.363 137.108 287.481 137.093C283.583 137.018 280.539 138.141 280.36 137.722Z" fill="#263238"/>
    <path d="M245.293 134.428C245.203 134.248 245.878 133.709 247.152 133.185C248.426 132.661 250.315 132.227 252.429 132.242C254.543 132.272 256.417 132.751 257.676 133.29C258.935 133.829 259.61 134.383 259.52 134.578C259.325 134.997 256.297 133.814 252.414 133.799C248.531 133.724 245.488 134.847 245.293 134.428Z" fill="#263238"/>
    <path d="M277.647 140.192C277.662 140.207 277.692 140.536 277.707 141.12C277.722 141.779 277.752 142.617 277.782 143.65C277.811 144.758 277.826 146.076 277.856 147.588C277.856 149.1 277.946 150.866 278.606 152.678C279.236 154.475 280.315 156.331 281.919 157.903C283.538 159.445 285.652 160.733 288.111 161.301C289.34 161.586 290.629 161.736 291.949 161.631C293.268 161.571 294.602 161.301 295.876 160.807C298.44 159.864 300.764 158.023 302.338 155.582C303.837 153.262 304.511 150.552 304.452 147.917C304.452 145.237 304.467 142.647 304.467 140.177L304.826 140.536C296.971 140.461 290.255 140.401 285.367 140.357C283.029 140.312 281.14 140.282 279.715 140.252C279.116 140.237 278.606 140.222 278.186 140.207C277.856 140.222 277.662 140.207 277.647 140.192C277.617 140.162 278.291 140.132 279.581 140.102C280.975 140.072 282.834 140.042 285.142 139.997C290.075 139.952 296.881 139.892 304.841 139.818H305.201V140.177C305.201 142.647 305.216 145.237 305.216 147.917C305.306 150.642 304.586 153.561 302.997 156.002C301.333 158.577 298.86 160.538 296.146 161.511C294.797 162.035 293.388 162.305 291.994 162.364C290.599 162.454 289.235 162.305 287.946 161.99C285.352 161.376 283.134 159.999 281.469 158.352C279.805 156.675 278.711 154.729 278.081 152.828C277.437 150.926 277.377 149.1 277.422 147.528C277.452 145.986 277.482 144.638 277.497 143.501C277.527 142.482 277.557 141.659 277.572 141C277.617 140.461 277.632 140.177 277.647 140.192Z" fill="#263238"/>
    <path d="M240.885 139.413C240.9 139.428 240.93 139.758 240.945 140.342C240.96 141 240.99 141.839 241.02 142.872C241.05 143.98 241.065 145.297 241.095 146.809C241.095 148.321 241.185 150.088 241.844 151.899C242.474 153.696 243.553 155.552 245.157 157.124C246.777 158.667 248.89 159.954 251.349 160.523C252.578 160.807 253.868 160.957 255.187 160.852C256.506 160.792 257.84 160.523 259.115 160.029C261.678 159.086 264.002 157.244 265.576 154.804C267.075 152.483 267.75 149.774 267.69 147.139C267.69 144.459 267.705 141.869 267.705 139.398L268.065 139.758C260.209 139.683 253.493 139.623 248.606 139.578C246.267 139.533 244.378 139.503 242.954 139.473C242.354 139.458 241.844 139.443 241.425 139.428C241.095 139.443 240.9 139.428 240.885 139.413C240.855 139.383 241.53 139.353 242.819 139.324C244.213 139.294 246.072 139.264 248.381 139.219C253.313 139.174 260.119 139.114 268.08 139.039H268.439V139.398C268.439 141.869 268.454 144.459 268.454 147.139C268.544 149.863 267.825 152.783 266.236 155.223C264.572 157.798 262.098 159.759 259.384 160.733C258.035 161.257 256.626 161.526 255.232 161.586C253.838 161.676 252.473 161.526 251.184 161.212C248.591 160.598 246.372 159.22 244.708 157.574C243.044 155.897 241.949 153.951 241.32 152.049C240.675 150.148 240.615 148.321 240.66 146.749C240.69 145.207 240.72 143.86 240.735 142.722C240.765 141.704 240.795 140.881 240.81 140.222C240.855 139.683 240.87 139.398 240.885 139.413Z" fill="#263238"/>
    <path d="M277.977 141.285C277.977 141.494 275.653 141.674 272.805 141.674C269.942 141.674 267.633 141.494 267.633 141.285C267.633 141.075 269.957 140.896 272.805 140.896C275.668 140.896 277.977 141.06 277.977 141.285Z" fill="#263238"/>
    <path d="M212.223 141.494C212.223 141.285 218.639 141.09 226.555 141.06C234.47 141.03 240.887 141.195 240.887 141.405C240.887 141.614 234.47 141.809 226.555 141.839C218.654 141.854 212.223 141.704 212.223 141.494Z" fill="#263238"/>
    <path d="M500.268 160.089L455.639 144.085L411.443 159.879C405.807 162.544 400.859 164.131 400.859 169.386V195.526C400.859 213.671 405.627 231.652 415.416 247.537C423.662 260.891 436.419 274.65 456.073 283.393C474.138 277.539 487.616 261.909 495.861 248.555C505.65 232.67 510.418 214.689 510.418 196.544V173.039C510.418 165.539 506.46 161.885 500.268 160.089Z" fill="#005377"/>
    <g opacity="0.3">
    <path d="M456.073 268.212C440.527 261.295 430.423 250.172 423.901 239.602C416.151 227.041 412.388 212.818 412.388 198.446V180.121C412.388 175.974 414.891 172.081 419.884 169.76L455.654 156.406L455.639 144.085L411.443 159.879C406.811 161.9 400.859 164.131 400.859 169.386V195.526C400.859 213.671 405.627 231.652 415.416 247.537C423.662 260.891 436.419 274.65 456.073 283.393V268.212Z" fill="black"/>
    </g>
    <g opacity="0.4">
    <path d="M456.072 283.378C459.205 282.33 462.084 281.132 464.842 279.62C472.248 275.593 478.574 270.053 483.402 265.038C488.799 259.439 492.816 253.375 496.309 247.716C506.099 231.832 510.866 213.851 510.432 195.212L510.462 173.638C510.432 162.888 504.915 162.095 500.282 160.074L455.652 144.069L455.667 156.391L491.857 169.97C496.834 172.29 499.353 176.183 499.353 180.33V198.655C499.353 213.013 495.59 227.235 487.839 239.811C481.318 250.381 471.648 261.28 456.102 268.197V283.378H456.072Z" fill="black"/>
    </g>
    <path opacity="0.5" d="M467.482 197.278L467.527 193.744C467.527 187.367 462.325 182.172 455.939 182.172C449.552 182.172 444.35 187.367 444.35 193.729L444.305 197.323C441.172 197.787 438.773 200.467 438.773 203.715V224.526C438.773 228.104 441.682 230.993 445.265 230.993H466.898C470.481 230.993 473.389 228.089 473.389 224.526V203.715C473.374 200.347 470.78 197.577 467.482 197.278ZM459.027 219.36H453.375L454.26 215.288C453.285 214.674 452.626 213.596 452.626 212.369C452.626 210.467 454.17 208.925 456.074 208.925C457.978 208.925 459.522 210.467 459.522 212.369C459.522 213.567 458.922 214.615 457.993 215.228C458.397 216.785 459.027 219.36 459.027 219.36ZM464.979 197.248H446.794L446.839 193.744C446.839 188.744 450.917 184.672 455.924 184.672C460.931 184.672 465.009 188.744 465.009 193.729L464.979 197.248Z" fill="white"/>
    <path d="M419.614 197.023C419.509 197.038 419.209 195.661 418.939 193.4C418.67 191.139 418.475 187.995 418.58 184.522C418.625 182.785 418.745 181.139 418.895 179.641C419.044 178.144 419.314 176.752 419.899 175.704C420.469 174.656 421.263 174.027 421.848 173.743C422.448 173.458 422.837 173.473 422.837 173.518C422.912 173.623 421.323 173.922 420.394 175.958C419.929 176.932 419.719 178.234 419.614 179.716C419.494 181.198 419.404 182.83 419.359 184.552C419.254 187.995 419.359 191.109 419.494 193.355C419.614 195.616 419.734 197.008 419.614 197.023Z" fill="white"/>
    <path d="M420.275 208.401C420.065 208.401 419.87 207.338 419.84 206.006C419.81 204.674 419.96 203.596 420.185 203.596C420.394 203.596 420.589 204.659 420.619 205.991C420.649 207.323 420.484 208.401 420.275 208.401Z" fill="white"/>
    <path d="M373.184 316.18L323.427 439.08H233.688V444.62H500.957L555.616 316.18H373.184Z" fill="#263238"/>
    <path d="M449.253 388.731C447.454 394.915 442.192 398.822 437.529 397.475C432.852 396.112 430.528 390.004 432.327 383.821C434.126 377.638 439.388 373.73 444.051 375.078C448.728 376.44 451.052 382.548 449.253 388.731Z" fill="#FAFAFA"/>
    </g>
    <defs>
    <clipPath id="clip0_1163_335">
    <rect width="649" height="447" fill="white"/>
    </clipPath>
    </defs>
    </svg>
    